<?xml version="1.0" encoding="UTF-8" ?>
<svg
    width="128"
    height="128"
    viewBox="0 0 128 128"
    xmlns="http://www.w3.org/2000/svg"
>

  <rect x="8" y="8" width="112" height="112" rx="28" fill="url(#paperGrad)" />

  <g transform="translate(67 57) scale(1.12)">
    <path
            d="M20 -20 A28 28 0 1 0 20 20 L10 10 A18 18 0 1 1 10 -10 Z"
            fill="#000000"
            opacity="0.15"
            transform="translate(1.5 1.5)"
        />
    <path
            d="M20 -20 A28 28 0 1 0 20 20 L10 10 A18 18 0 1 1 10 -10 Z"
            fill="#2A2A2A"
        />
    <path
            d="M-2 24 C-2 32 12 32 12 42 C12 50 -8 50 -12 38"
            stroke="#2A2A2A"
            stroke-width="6"
            fill="none"
            stroke-linecap="round"
        />

  </g>

  <defs>
    <linearGradient
            id="paperGrad"
            x1="0"
            y1="8"
            x2="0"
            y2="120"
            gradientUnits="userSpaceOnUse"
        >
      <stop offset="0%" stop-color="#F9D46B" />
      <stop offset="100%" stop-color="#E6AE2F" />
    </linearGradient>
  </defs>

</svg>
